<?xml version="1.0" encoding="UTF-8" standalone="no"?>
<svg xmlns:svg="http://www.w3.org/2000/svg"
   xmlns="http://www.w3.org/2000/svg"
   viewBox="0 0 4956.3599 4956.3599"
   height="4956.3599"
   width="4956.3599"
   xml:space="preserve"
   id="svg2"
   version="1.1"><g
     transform="matrix(1.3333333,0,0,-1.3333333,0,4956.36)"
     id="g10"><g
       transform="scale(0.1)"
       id="g12"><g
         transform="scale(2.28053)"
         id="g14"><path
           id="path16"
           style="fill:#e9e8e7;fill-opacity:1;fill-rule:evenodd;stroke:none"
           d="M 0,0 H 16300 V 16300 H 0 V 0" /></g><g
         transform="scale(1.56097)"
         id="g18"><path
           id="path20"
           style="fill:#b1b1b0;fill-opacity:1;fill-rule:evenodd;stroke:none"
           d="m 10455.7,13756.9 c 371.4,371.4 884.6,601.1 1451.3,601.1 566.8,0 1079.8,-229.7 1451.2,-601.1 371.5,-371.5 601.2,-884.5 601.2,-1451.3 0,-566.7 -229.7,-1079.8 -601.2,-1451.3 -371.4,-371.4 -884.6,-601.1 -1451.2,-601.1 -566.7,0 -1079.9,229.7 -1451.3,601.1 -371.4,371.5 -601.05,884.6 -601.05,1451.3 0,566.8 229.65,1079.8 601.05,1451.3 z m 1451.3,-60.4 c -384.2,0 -731.8,-155.7 -983.5,-407.4 -251.7,-251.6 -407.5,-599.4 -407.5,-983.5 0,-384 155.8,-731.8 407.5,-983.5 251.7,-251.7 599.3,-407.3 983.5,-407.3 384.1,0 731.8,155.6 983.5,407.3 251.7,251.7 407.3,599.5 407.3,983.5 0,384.1 -155.6,731.9 -407.3,983.5 -251.7,251.7 -599.4,407.4 -983.5,407.4 z M 8376.59,14953.1 H 9686.8 c 42.35,241 85.01,481.9 127.17,722.9 49.39,281.6 272.23,512.3 496.63,512.3 531.4,0 1063.6,0 1595.3,0 531.8,0 1064.2,0 1596.4,0 223.9,0 448,-230.7 497.6,-512.3 42.3,-241 85,-481.9 127.3,-722.9 h 1310 c 474.5,0 862.8,-388.2 862.8,-862.8 V 10490 c 0,-474.5 -388.3,-862.71 -862.8,-862.71 H 8376.59 c -474.45,0 -862.73,388.21 -862.73,862.71 v 3600.3 c 0,474.6 388.28,862.8 862.73,862.8 v 0" /></g><g
         transform="scale(1.68587)"
         id="g22"><path
           id="path24"
           style="fill:#b1b1b0;fill-opacity:1;fill-rule:nonzero;stroke:none"
           d="m 16154.7,7357.53 v 140.94 h 140.9 v -140.94 z m 33,251.38 -37.2,536.58 v 224.46 h 149.5 v -224.46 l -33.9,-536.58 z m -775,114.66 c 0,-55.28 7.9,-104.04 23.9,-146.75 16.1,-42.23 39.4,-75.51 69.3,-99.35 30.4,-23.38 66.6,-35.36 108.5,-35.36 60.9,0 109,24.56 144.3,73.68 35.2,49.11 52.9,114.83 52.9,196.87 0,91.46 -17.7,162.94 -53.5,215.08 -35.5,51.96 -85.3,78 -149.1,78 -130.9,0 -196.3,-94.02 -196.3,-282.17 z m 396.7,-366.04 v 91.82 c -46.9,-72.66 -116,-109.14 -207,-109.14 -98.7,0 -176.4,36.83 -232.7,110.51 -56.7,73.78 -84.9,164.78 -84.9,272.85 0,79.37 13.1,148.47 39.3,206.3 26.4,57.72 62.2,101.91 107.8,132.22 45.4,30.43 100.4,45.56 165.1,45.56 86.6,0 154.6,-33.64 203.8,-100.54 v 362.84 h 123.4 V 7357.53 Z m -1264.6,0 v 732.8 h 112.8 v -104.1 c 53.8,80.9 132.1,121.42 234.9,121.42 167.1,0 250.7,-88.98 250.7,-266.69 v -483.43 h -123.6 v 446.24 c 0,130.32 -51,195.39 -153.2,195.39 -130.5,0 -195.8,-80.2 -195.8,-240.95 v -400.68 z m -308.5,0 v 108.49 c -56,-83.94 -132.9,-125.81 -231.3,-125.81 -44.7,0 -83.4,6.4 -116,19.16 -32.4,12.63 -58.8,31.79 -79.4,57.06 -20.3,25.39 -33.9,54.63 -41.1,87.08 -7.8,32.92 -11.3,77.35 -11.3,132.98 v 453.84 h 123.6 V 7684.6 c 0,-63.77 2.2,-106.59 6.9,-128.66 4.2,-22.18 12.9,-41.7 24.9,-57.47 12.2,-16.32 28.2,-28.6 47.7,-37.2 19.5,-8.36 42.9,-12.75 70.5,-12.75 48.7,0 88.1,11.27 118,33.28 30.1,22.36 50,50.95 59.7,86.42 9.7,35 14.8,78.36 14.8,129.67 v 392.44 h 125.8 v -732.8 z m -1186.4,367.11 c 0,-60.38 8.9,-111.7 27,-153.87 18,-42.71 43.1,-74.86 74.3,-96.21 31.5,-21.65 70.1,-32.45 115.3,-32.45 70.2,0 124,25.57 161.1,77.35 37.4,51.61 55.7,121.42 55.7,209.15 0,84.11 -19.2,151.38 -57.3,201.62 -38.4,50.12 -91.5,75.51 -159.5,75.51 -72.9,0 -127.1,-26.75 -162.8,-80.19 -35.9,-53.51 -53.8,-120.42 -53.8,-200.91 z m -128,0 c 0,126.76 32.4,222.55 97.5,286.5 65,64.18 147.4,96.51 247.1,96.51 63,0 119.6,-13.11 169.9,-38.68 50.3,-25.74 91.8,-66.91 124.9,-123.26 33.3,-56.35 49.9,-127.11 49.9,-211.7 0,-134.83 -33.2,-234.06 -100,-298.12 -66.9,-63.89 -148.6,-95.68 -244.7,-95.68 -72.2,0 -133.6,15.18 -184.6,45.91 -50.9,30.61 -90.2,74.68 -118.2,131.86 -27.7,57 -41.8,126.11 -41.8,206.66 z m -314.8,-367.11 v 637.3 h -110.5 v 95.5 h 110.5 v 78.35 c 0,45.2 4.1,80.2 12.3,105.06 8.1,24.55 20.6,45.55 37.3,62.57 17,16.97 38.2,29.6 63.9,38.32 25.7,8.25 55.3,12.64 89.3,12.64 35,0 73.6,-3.74 116,-10.98 l -18.8,-108.25 c -25.8,4.39 -50,6.58 -73,6.58 -38.7,0 -65.4,-8.42 -80.5,-25.09 -15.3,-16.61 -22.9,-46.92 -22.9,-90.93 v -68.27 h 143.1 v -95.5 h -143.1 v -637.3 z m -632.2,112.7 18,-110.86 c -35.3,-6.88 -66.4,-10.56 -94.3,-10.56 -38.5,0 -70.8,5.87 -96.7,17.32 -25.8,11.57 -44.9,29.42 -57.2,52.43 -12.3,23.55 -18.3,74.86 -18.3,154.35 v 421.92 h -91.1 v 95.5 h 91.1 v 182.1 l 123.4,73.61 v -255.71 h 125.8 v -95.5 h -125.8 v -428.45 c 0,-33.27 2.2,-55.64 6.5,-67.26 4.1,-11.57 11.7,-19.82 22.1,-25.21 10.9,-5.4 24.5,-7.89 41.5,-7.89 14.2,0 32.7,1.3 55,4.21 z m -980,254.41 c 0,-60.38 9.1,-111.7 27.2,-153.87 18.1,-42.71 43,-74.86 74.4,-96.21 31.4,-21.65 70.1,-32.45 115.4,-32.45 70.1,0 123.9,25.57 161.1,77.35 37.1,51.61 55.6,121.42 55.6,209.15 0,84.11 -19.1,151.38 -57.5,201.62 -38.3,50.12 -91.3,75.51 -159.2,75.51 -73,0 -127.3,-26.75 -163.1,-80.19 -35.7,-53.51 -53.9,-120.42 -53.9,-200.91 z m -127.7,0 c 0,126.76 32.4,222.55 97.5,286.5 65.1,64.18 147.5,96.51 247.2,96.51 62.7,0 119.5,-13.11 169.8,-38.68 50.1,-25.74 91.6,-66.91 124.9,-123.26 33.3,-56.35 50,-127.11 50,-211.7 0,-134.83 -33.3,-234.06 -100.2,-298.12 -66.8,-63.89 -148.5,-95.68 -244.5,-95.68 -72.3,0 -133.7,15.18 -184.7,45.91 -50.9,30.61 -90.4,74.68 -118.1,131.86 -27.8,57 -41.9,126.11 -41.9,206.66 z m -740,-367.11 v 732.8 h 112.6 v -104.1 c 54,80.9 132.4,121.42 234.9,121.42 167.3,0 250.7,-88.98 250.7,-266.69 v -483.43 h -123.5 v 446.24 c 0,130.32 -51,195.39 -153.3,195.39 -130.2,0 -195.6,-80.2 -195.6,-240.95 V 7357.53 Z M 8951.19,7795.4 h 409.58 c -5.69,70.47 -27.04,123.26 -64.53,157.9 -37.31,35.12 -82.75,52.44 -136.73,52.44 -39.32,0 -73.97,-8.72 -103.57,-26.04 -29.77,-17.02 -53.8,-41.22 -72.6,-72.31 -18.51,-30.96 -29.3,-68.27 -32.15,-111.99 z m 409.58,-201.61 128.01,-15.78 c -42.23,-158.73 -150.01,-237.8 -322.68,-237.8 -73.32,0 -136.2,15.18 -187.8,45.08 -52.14,30.07 -91.82,72.96 -119.76,128.95 -27.7,56 -41.88,123.91 -41.88,203.81 0,119.23 30.79,213.9 91.82,284.01 61.4,70.41 144.97,105.59 250.73,105.59 23.2,0 45.2,-1.9 66.56,-5.4 20.17,-3.38 40.04,-8.72 59.2,-15.66 18.8,-7.18 36.47,-15.78 52.79,-26.69 16.96,-10.44 32.44,-22.37 46.56,-35.83 14.83,-14.77 28.24,-30.96 40.04,-48.4 12.75,-18.33 23.55,-37.85 32.62,-58.19 8.55,-20.53 15.49,-42.53 21.36,-66.44 5.69,-23.54 9.37,-48.1 11.45,-73.96 0.83,-7.78 1.12,-35.48 1.12,-83.58 h -546.24 c 4.33,-77.35 26.03,-138.74 65.72,-183.94 39.33,-45.09 91.82,-67.45 156.89,-67.45 93.13,0 157.37,50.66 193.49,151.68 z m -1210.24,143.43 c 0,-185.31 67.09,-277.79 201.56,-277.79 63.59,0 113,24.56 148.47,73.32 35.47,48.76 53.15,115.67 53.15,200.61 0,81.2 -18.15,146.93 -54.63,197.23 -36.48,50.12 -86.25,75.15 -149.18,75.15 -65.73,0 -115.31,-26.04 -148.77,-78.36 -33.63,-52.43 -50.6,-115.66 -50.6,-190.16 z m -101.9,-440.37 121.36,-18.15 c 10.44,-77.71 66.43,-116.38 167.69,-116.38 37.48,0 70.11,5.57 97.16,16.01 27.05,10.38 48.76,26.4 65.43,47.39 16.6,20.53 27.7,44.08 33.63,70.47 6.05,25.87 8.89,78.66 8.89,157.9 -54.15,-64.41 -122.07,-96.56 -202.98,-96.56 -64.06,0 -119.52,15.48 -166.62,46.62 -46.92,31.08 -83.69,74.15 -110.45,129.61 -26.75,55.34 -40.21,120.41 -40.21,195.21 0,115.55 28.94,207.67 86.78,276.12 57.53,68.21 134.35,102.56 230.21,102.56 86.24,0 157.84,-35.18 214.19,-104.76 v 87.44 h 114.84 v -633.39 c 0,-92.18 -6.88,-159.74 -20.17,-202.8 -13.47,-42.89 -33.63,-78.66 -61.04,-107.25 -27.58,-28.59 -62.22,-50.29 -103.74,-64.59 -41.53,-14.48 -89.99,-21.71 -145.63,-21.71 -97.16,0 -170.11,21.23 -219.23,64.24 -48.76,43.06 -72.31,100.07 -70.11,172.02 z m -297.77,429.27 c -43.72,-17.79 -111.34,-33.28 -202.63,-46.74 -74.14,-10.44 -121.72,-26.22 -142.77,-47.57 -21.36,-21.36 -31.74,-47.1 -31.74,-77.35 0,-77.71 49.06,-116.68 146.93,-116.68 34.46,0 65.43,4.33 93.01,13.23 27.4,8.78 51.25,22.54 71.12,40.87 20.17,18.51 36.12,41.23 48.04,68.27 11.99,27.23 18.04,67.27 18.04,120.42 z m 10.91,-277.6 c -84.94,-72.13 -175.4,-108.31 -271.37,-108.31 -76.17,0 -137.38,18.68 -182.82,56.7 -45.55,37.97 -68.21,89.28 -68.21,154.35 0,37.49 7.89,70.76 24.2,100.72 16.14,29.6 43.18,55.99 80.55,78.83 37.49,23.07 98.82,39.68 184.24,50.48 102.62,12.75 176.59,26.69 222.5,42.35 v 32.8 c 0,99.36 -58.85,149.3 -176.77,149.3 -64.18,0 -109.44,-11.92 -135,-36.12 -26.04,-24.26 -44.9,-59.2 -56.83,-104.76 l -121.42,15.78 c 31.97,151.5 142.13,227.01 330.75,227.01 52.97,0 98.23,-5.88 136.19,-17.03 37.85,-11.21 68.63,-28.23 92.18,-50.59 23.67,-22.72 38.97,-48.05 46.21,-76.17 6.76,-28.23 10.44,-72.66 10.44,-133.34 V 7507.9 c 0,-15.66 2.85,-38.38 9.07,-67.98 5.7,-29.6 15.78,-57.12 29.96,-82.39 H 7785.5 c -12.28,26.1 -20.23,56.35 -23.73,90.99 z m -1658.38,-90.99 v 732.8 h 112.65 v -101.91 c 51.3,79.37 125.45,119.23 221.96,119.23 107.96,0 176.88,-42.71 207.31,-127.95 58.49,85.24 133.64,127.95 226.12,127.95 151.37,0 227,-82.04 227,-246.52 v -503.6 h -123.55 v 462.08 c 0,119.58 -43.72,179.55 -131.15,179.55 -119.23,0 -178.9,-71.78 -178.9,-215.68 v -425.95 h -125.81 v 475.84 c 0,110.5 -43.36,165.79 -129.61,165.79 -40.22,0 -73.32,-9.08 -100.07,-27.05 -26.69,-17.68 -47.03,-44.73 -60.32,-80.56 -13.47,-36.12 -19.87,-87.07 -19.87,-153.5 v -380.52 z m -353.78,0 v 1012.42 h 134.35 V 7357.53 h -134.35" /></g></g></g></svg>