<?xml version="1.0" standalone="no"?>
<svg version="1.0" xmlns="http://www.w3.org/2000/svg"
 width="1000.000000pt" height="1000.000000pt" viewBox="0 0 1000.000000 1000.000000"
 preserveAspectRatio="xMidYMid meet">

<g transform="translate(0.000000,1000.000000) scale(0.100000,-0.100000)"
fill="#000000" stroke="none">
<path d="M4848 7704 c-309 -40 -618 -134 -899 -274 -301 -150 -513 -303 -750
-539 -460 -460 -733 -1019 -815 -1671 -19 -155 -19 -533 1 -685 46 -350 130
-626 282 -930 416 -829 1193 -1392 2128 -1540 136 -22 527 -31 678 -16 583 57
1113 278 1558 650 529 442 867 1034 985 1726 35 203 44 543 20 754 -90 802
-484 1496 -1124 1979 -393 296 -851 479 -1371 547 -145 19 -542 18 -693 -1z
m562 -77 c-14 -6 -28 -16 -32 -22 -10 -13 -10 -115 -1 -264 6 -114 6 -114 35
-125 51 -19 29 -26 -82 -26 -60 0 -110 2 -110 5 0 3 11 10 24 15 30 11 32 24
26 215 -6 185 4 192 -97 -72 -36 -95 -69 -173 -73 -173 -4 0 -47 86 -95 190
-48 105 -89 190 -91 190 -8 0 9 -326 18 -342 5 -10 20 -18 33 -18 14 0 25 -4
25 -10 0 -6 -34 -10 -82 -9 -81 1 -82 1 -50 15 l32 14 0 143 c0 78 -3 166 -7
195 -5 49 -8 54 -35 59 -55 11 -12 24 68 21 l78 -3 66 -142 c36 -78 68 -145
71 -148 4 -3 28 50 54 117 27 68 54 138 62 156 l13 32 88 -1 c74 0 83 -2 62
-12z m-900 -76 c0 -5 -7 -11 -15 -15 -8 -3 -15 -17 -15 -31 0 -28 105 -321
123 -343 6 -8 21 -12 34 -9 13 2 26 1 28 -3 6 -9 -193 -85 -202 -77 -3 4 5 15
18 26 l23 19 -58 158 c-33 88 -62 163 -66 167 -4 4 -10 -85 -14 -199 -3 -114
-9 -212 -13 -217 -4 -6 -73 59 -155 144 l-148 154 26 -70 c92 -254 103 -273
145 -260 11 4 19 2 19 -3 0 -11 -132 -63 -140 -55 -3 3 5 12 18 20 12 9 22 21
22 29 0 27 -121 339 -136 350 -8 7 -24 10 -34 7 -11 -3 -20 -1 -20 4 0 4 35
21 77 37 l76 29 117 -124 118 -124 6 160 c4 88 9 165 11 171 2 6 34 23 72 37
77 29 83 31 83 18z m1471 -233 c17 -126 34 -225 44 -242 9 -16 14 -30 13 -31
-6 -6 -198 50 -198 57 0 4 12 8 28 10 25 3 27 6 26 50 0 26 -3 50 -6 53 -3 3
-35 14 -72 24 l-68 19 -29 -42 -30 -41 28 -22 c34 -28 19 -30 -55 -8 -55 17
-67 31 -30 37 16 2 65 58 163 185 84 109 144 178 149 173 5 -5 22 -105 37
-222z m589 -38 c172 -100 212 -162 160 -247 -21 -34 -68 -51 -115 -39 l-25 6
6 -92 c4 -51 10 -111 15 -133 4 -22 6 -41 5 -43 -2 -1 -28 12 -58 30 l-56 33
-6 65 c-3 36 -6 93 -6 128 0 34 -4 62 -10 62 -11 0 -51 -60 -77 -115 -16 -33
-15 -36 2 -55 35 -38 7 -31 -81 22 -86 53 -124 89 -71 69 20 -8 28 -6 44 12
30 33 183 293 183 310 0 8 -7 20 -15 27 -24 20 -18 34 8 18 12 -8 56 -34 97
-58z m-2870 -160 c41 -55 41 -74 -2 -46 -62 40 -146 27 -174 -25 -13 -26 -13
-32 1 -59 18 -35 39 -37 172 -18 73 11 87 10 118 -5 69 -33 96 -127 56 -193
-24 -39 -74 -77 -123 -95 -25 -8 -38 -19 -38 -31 0 -31 -17 -20 -65 43 -48 61
-52 85 -12 59 74 -46 113 -51 164 -20 35 21 49 55 39 95 -10 41 -46 51 -127
37 -131 -23 -179 -11 -218 51 -51 83 -6 172 106 211 26 9 39 20 41 35 5 31 15
24 62 -39z m1821 16 c215 -29 460 -103 664 -200 720 -343 1209 -1043 1286
-1841 16 -166 7 -448 -20 -600 -64 -362 -207 -692 -431 -990 -85 -113 -289
-323 -396 -408 -296 -233 -648 -390 -1029 -460 -105 -19 -154 -22 -390 -22
-288 1 -357 8 -565 62 -309 79 -624 239 -874 442 -345 280 -618 692 -741 1122
-91 317 -116 665 -70 974 170 1136 1166 1973 2310 1939 83 -2 198 -11 256 -18z
m1791 -548 c-25 -26 -49 -45 -52 -43 -4 3 1 22 11 42 20 42 17 76 -11 113
l-19 25 -142 -142 -143 -141 17 -26 c19 -28 21 -36 9 -36 -13 0 -165 170 -158
177 3 3 14 -1 24 -10 10 -10 23 -17 29 -17 5 0 72 61 149 135 l139 135 -24 20
c-34 29 -63 34 -106 16 -21 -9 -41 -13 -44 -10 -3 3 16 26 44 50 l50 44 136
-142 137 -143 -46 -47z m-4102 197 c0 -2 -5 -15 -11 -28 -7 -15 -8 -31 -3 -39
10 -17 228 -214 261 -235 19 -13 25 -12 47 2 14 10 26 13 26 9 0 -11 -137
-168 -150 -172 -13 -5 -13 15 0 23 26 16 3 49 -92 138 -57 53 -121 109 -142
126 -37 30 -40 31 -63 15 -48 -31 -35 -3 38 80 66 75 89 96 89 81z m-435
-1779 c39 -5 72 -10 74 -13 3 -2 -19 -28 -48 -57 -59 -60 -57 -50 -34 -174 l6
-34 -71 36 -71 36 -66 -36 -65 -36 0 26 c0 14 5 49 11 77 l11 53 -51 49 c-28
26 -51 52 -51 57 0 4 32 11 70 15 l71 7 35 71 36 71 37 -70 36 -69 70 -9z
m5032 -30 l32 -64 58 -8 c100 -12 100 -13 40 -72 l-54 -53 13 -72 c6 -40 11
-73 9 -75 -1 -2 -32 12 -69 30 l-66 32 -66 -32 c-37 -18 -68 -31 -70 -29 -2 2
2 35 10 74 l13 71 -53 53 c-61 60 -61 61 39 73 l58 8 32 64 c17 35 34 64 37
64 3 0 20 -29 37 -64z m-343 -1049 c7 -11 7 -29 0 -56 -11 -38 -10 -40 17 -52
16 -6 35 -9 44 -5 8 3 15 0 15 -7 -1 -19 -39 -84 -40 -66 0 20 -142 84 -165
76 -19 -8 -19 -10 9 56 14 30 35 62 47 70 24 17 57 10 73 -16z m-4539 -2 c14
-13 25 -36 25 -50 0 -14 6 -25 13 -25 12 -1 -31 -29 -45 -30 -4 0 0 13 9 28
18 31 13 59 -13 69 -24 9 -44 -23 -44 -73 0 -47 -25 -74 -66 -74 -25 0 -64 43
-64 71 0 10 -4 21 -10 24 -18 11 -11 23 22 34 39 14 44 10 18 -14 -36 -32 -21
-89 21 -83 21 3 25 10 31 58 4 39 13 60 28 72 30 24 46 23 75 -7z m135 -270
c0 -2 -9 -1 -19 2 -10 3 -31 -3 -45 -12 -25 -17 -26 -18 -9 -46 10 -16 22 -29
28 -29 14 1 52 32 57 48 2 8 14 -6 27 -29 13 -23 19 -39 12 -35 -15 9 -159
-74 -163 -94 -2 -9 -12 0 -26 23 -26 45 -27 48 -8 41 12 -5 30 3 74 32 2 1 -4
16 -13 33 -15 31 -16 31 -46 16 -16 -9 -34 -26 -38 -38 -8 -20 -10 -18 -30 21
-18 36 -19 42 -5 42 27 0 146 72 152 92 4 16 9 12 28 -22 13 -23 24 -43 24
-45z m4284 1 c36 -20 67 -44 70 -52 13 -34 5 -67 -24 -96 -36 -35 -54 -34
-131 13 -30 19 -58 29 -70 26 -19 -5 -19 -4 2 31 27 45 43 64 34 41 -5 -13 9
-26 52 -52 79 -47 96 -51 117 -28 30 33 17 62 -49 103 -33 20 -68 36 -77 34
-21 -5 -22 -2 -5 24 8 14 13 16 15 7 1 -7 31 -30 66 -51z m-161 -247 c78 -40
74 -160 -7 -194 -84 -35 -174 46 -146 131 21 63 94 93 153 63z m-3943 -24 c0
-2 -14 -28 -31 -57 -18 -29 -42 -74 -53 -99 l-22 -46 -28 38 c-15 22 -21 36
-13 34 9 -4 25 13 46 46 17 28 30 53 28 56 -3 2 -16 1 -31 -3 -27 -6 -33 -18
-16 -29 6 -3 10 -12 10 -18 -1 -7 -9 -2 -20 11 -22 26 -56 23 -62 -5 -2 -13
-7 -10 -22 12 -15 23 -16 27 -3 22 9 -3 53 5 99 18 82 23 118 29 118 20z m161
-192 c18 -20 27 -33 17 -30 -19 7 -128 -101 -128 -127 0 -16 37 -46 58 -46 7
0 38 23 68 52 43 40 53 56 48 72 -6 19 -4 19 21 -4 24 -22 25 -25 8 -29 -10
-2 -41 -25 -70 -52 -62 -58 -91 -63 -134 -20 -44 44 -39 72 27 141 31 32 53
64 49 69 -12 21 1 11 36 -26z m3543 -32 c11 -12 15 -27 11 -44 -6 -24 -5 -25
55 -32 l61 -7 -21 -23 c-18 -19 -26 -21 -58 -14 -20 5 -48 9 -61 9 l-24 0 22
-24 c13 -14 32 -26 43 -28 17 -3 14 -8 -18 -38 -20 -19 -34 -28 -31 -19 7 20
-115 145 -132 135 -34 -22 13 34 64 74 44 35 65 37 89 11z m-3284 -207 c0 -2
-6 -1 -14 2 -8 3 -23 -7 -35 -24 -27 -38 -27 -40 7 -35 65 10 74 14 68 29 -4
11 2 10 24 -6 45 -32 43 -35 -22 -32 l-60 4 4 -86 c2 -47 1 -86 -2 -86 -12 1
-73 60 -62 60 8 0 12 18 12 52 l0 51 -26 -24 c-15 -14 -23 -31 -21 -41 7 -25
-2 -22 -43 12 -25 21 -30 30 -18 30 24 0 120 120 114 143 -3 13 5 10 35 -14
21 -17 39 -32 39 -35z m3050 -5 c0 -4 -17 -5 -38 -2 -73 10 -92 -47 -40 -118
33 -44 68 -61 98 -46 13 7 25 17 27 22 5 16 -36 56 -50 50 -7 -4 4 8 23 25 30
27 35 28 39 13 1 -10 10 -26 18 -35 14 -15 13 -20 -7 -48 -48 -68 -123 -79
-176 -26 -27 27 -34 42 -34 74 0 46 26 84 70 102 16 7 30 17 30 23 0 5 9 2 20
-8 11 -10 20 -21 20 -26z m-2784 -191 c-13 -61 -27 -181 -22 -194 7 -19 4 -18
-39 8 -31 17 -34 23 -21 30 25 14 19 42 -13 61 -23 14 -31 14 -46 3 -10 -7
-15 -18 -11 -24 10 -17 -6 -15 -30 3 -14 11 -16 14 -4 15 8 0 51 27 94 60 44
33 83 60 88 60 5 0 6 -10 4 -22z m2392 -53 c11 -25 11 -25 -12 -10 -20 13 -56
12 -56 -1 0 -21 75 -147 91 -152 17 -7 14 -11 -25 -29 -31 -16 -43 -18 -40 -9
4 11 -55 147 -72 165 -9 10 -34 -24 -34 -48 l-1 -26 -15 28 c-9 16 -14 30 -12
32 10 9 145 74 154 75 6 0 16 -11 22 -25z m-2100 -75 c28 -12 52 -25 52 -29
-1 -3 -7 -17 -15 -31 l-14 -25 -1 25 c0 25 -16 50 -31 50 -12 0 -71 -149 -66
-165 4 -8 1 -15 -6 -15 -19 1 -84 39 -66 40 14 0 44 56 86 158 8 18 -42 15
-57 -3 -18 -22 -23 -12 -9 18 13 29 2 31 127 -23z m1812 -131 c83 -88 82 -83
10 -103 -18 -5 -21 -5 -10 3 12 8 12 12 -3 29 -16 17 -22 18 -48 9 -33 -13
-41 -53 -11 -59 12 -3 8 -7 -14 -15 l-30 -11 7 47 c4 25 8 76 8 114 1 37 4 67
8 67 4 0 41 -36 83 -81z m-1443 8 c2 -2 8 -30 13 -63 17 -92 17 -92 62 -28 23
33 43 61 44 63 2 2 19 0 40 -3 30 -6 34 -9 20 -19 -16 -13 -50 -152 -42 -174
6 -15 1 -16 -44 -7 -19 4 -27 10 -20 14 12 7 44 139 36 147 -3 3 -26 -27 -52
-66 -26 -39 -50 -71 -54 -71 -4 0 -10 18 -14 40 -3 22 -12 64 -18 93 l-12 52
-12 -50 c-16 -67 -17 -112 -1 -118 6 -3 3 -5 -8 -6 -27 0 -68 17 -43 18 9 1
19 9 22 19 15 52 27 137 23 154 -5 18 -2 20 25 14 18 -3 33 -8 35 -9z m1175 1
c-5 -7 -16 -57 -22 -110 -7 -54 -16 -98 -19 -98 -4 0 -22 27 -41 60 -37 66
-45 65 -55 -15 -4 -27 -10 -56 -14 -62 -4 -8 -27 22 -60 77 -29 50 -58 90 -65
90 -19 1 17 17 54 24 25 5 31 4 20 -3 -12 -8 -11 -16 9 -53 41 -74 45 -75 56
-11 5 34 3 45 -14 62 -14 14 -17 21 -7 21 7 0 28 3 46 7 25 5 31 3 25 -6 -8
-13 32 -111 45 -111 4 0 10 24 13 53 4 39 2 55 -10 64 -12 10 -12 12 4 16 36
9 46 8 35 -5z m-741 -168 l36 -100 -46 1 c-25 0 -40 3 -33 6 6 2 12 15 12 28
0 19 -6 24 -36 27 -27 3 -38 0 -45 -14 -6 -10 -7 -23 -4 -28 3 -6 -6 -10 -20
-10 -24 0 -25 2 -11 15 8 8 33 54 56 102 22 47 43 83 47 79 4 -3 23 -51 44
-106z m335 74 c12 -17 13 -27 4 -43 -6 -12 -15 -21 -20 -21 -19 0 -10 -22 26
-66 l36 -44 -30 0 c-25 0 -38 9 -64 45 -18 24 -36 44 -40 45 -15 0 -8 -59 8
-74 14 -15 14 -16 -4 -16 -11 0 -35 -3 -53 -6 -24 -4 -30 -3 -20 4 21 15 16
173 -6 189 -12 10 -6 12 38 15 80 4 108 -2 125 -28z"/>
<path d="M5815 7350 c-26 -34 -43 -65 -39 -69 12 -10 103 -35 109 -30 4 5 -14
152 -20 157 -1 2 -24 -24 -50 -58z"/>
<path d="M6546 7178 c-67 -107 -67 -109 -10 -128 46 -16 73 -2 103 50 27 49
27 81 -2 108 -35 33 -54 27 -91 -30z"/>
<path d="M3800 6354 c0 -30 -3 -35 -17 -31 -32 9 -38 9 -60 8 -34 -2 -38 -35
-8 -67 21 -22 25 -37 25 -84 0 -41 -5 -61 -16 -71 -13 -11 -17 -11 -25 2 -44
79 -79 77 -79 -6 0 -64 25 -124 82 -200 21 -27 38 -58 38 -67 0 -9 5 -29 12
-43 9 -19 8 -35 -2 -67 -20 -68 -39 -106 -65 -133 -30 -29 -31 -41 -5 -48 20
-5 20 -5 0 -41 -36 -60 -60 -138 -60 -196 0 -30 -4 -72 -9 -93 -8 -32 -6 -39
10 -48 15 -8 19 -21 19 -69 0 -32 5 -62 10 -65 6 -3 10 -17 10 -31 0 -13 5
-24 10 -24 6 0 10 12 10 26 0 66 52 -15 65 -101 10 -67 23 -138 33 -175 l9
-35 11 28 c6 15 17 27 24 27 22 0 58 -106 58 -170 l0 -43 25 23 c29 27 25 29
58 -35 32 -62 67 -114 67 -99 0 6 -9 39 -21 73 -20 64 -22 111 -4 113 16 1 75
-123 113 -237 56 -173 67 -242 67 -436 0 -158 -2 -180 -22 -225 -12 -27 -24
-58 -28 -69 -6 -19 -7 -19 -19 4 l-13 23 -31 -28 c-30 -28 -36 -44 -33 -94 2
-24 2 -24 16 -6 15 19 16 19 42 -6 36 -34 93 -42 93 -13 0 8 8 28 19 45 15 25
20 28 25 15 3 -9 6 -29 6 -45 0 -42 20 -53 63 -35 57 23 81 90 56 152 -24 59
-28 69 -39 115 -17 67 -3 481 25 749 7 62 10 67 36 75 l28 9 -39 80 -40 79 20
21 c25 27 25 30 -5 63 -14 15 -25 30 -25 34 0 11 18 10 25 -2 3 -5 14 -10 24
-10 46 0 181 -125 181 -168 0 -15 -24 -14 -63 3 -15 6 -17 4 -12 -17 12 -48
21 -177 13 -197 -5 -15 -16 -21 -37 -21 -35 0 -41 -13 -41 -93 1 -69 19 -113
61 -146 26 -20 27 -20 44 -1 17 19 64 19 110 0 26 -11 99 -22 155 -24 41 -1
45 1 45 22 1 24 9 31 100 73 28 13 79 40 114 61 34 21 66 38 70 38 3 0 19 11
34 24 l28 25 -30 27 c-46 40 -25 50 51 24 155 -54 322 -152 463 -269 158 -133
202 -151 363 -151 106 0 158 -8 204 -31 10 -5 23 -9 29 -9 20 0 124 -80 160
-122 92 -112 99 -151 38 -211 -36 -36 -40 -44 -35 -75 8 -50 21 -59 37 -26 8
15 20 30 28 32 10 3 12 -4 6 -36 l-7 -41 48 -7 c63 -9 78 2 82 60 3 38 6 47
20 44 12 -2 18 -15 20 -46 l3 -42 60 0 59 0 0 38 c0 23 -7 46 -18 58 -10 10
-29 35 -42 54 -13 19 -32 44 -42 54 -10 11 -18 26 -18 33 0 7 -4 13 -10 13 -5
0 -10 5 -10 10 0 6 -31 58 -70 115 -38 57 -70 107 -70 110 0 10 -62 98 -85
120 -55 55 -76 65 -138 65 -93 0 -147 50 -160 147 -3 28 -1 46 8 53 10 8 16
-2 30 -42 22 -68 49 -98 89 -98 17 0 37 4 45 9 13 8 50 0 98 -22 12 -6 42 -35
65 -65 107 -136 133 -165 171 -193 l40 -29 22 24 c20 22 46 30 115 39 8 1 16
14 18 28 4 37 68 69 138 69 57 0 65 7 36 33 -33 30 -95 48 -183 54 -104 7
-119 14 -101 43 27 44 20 47 -125 53 -229 11 -318 47 -389 158 -32 51 -82 102
-131 134 -23 15 -46 39 -51 55 -7 18 -26 35 -56 51 -29 14 -46 29 -46 40 0 19
-32 37 -105 60 -22 7 -44 17 -49 21 -6 4 -20 8 -33 8 -13 0 -31 4 -41 9 -16 9
-56 20 -147 43 -22 5 -54 14 -71 19 -17 5 -47 9 -67 9 -20 0 -39 5 -42 10 -3
6 -16 10 -27 10 -23 0 -81 17 -110 31 -10 5 -25 9 -33 9 -8 0 -23 4 -33 9 -21
12 -73 34 -132 57 -106 42 -264 134 -284 166 -15 25 -6 28 41 15 86 -23 59 23
-50 82 -64 36 -66 39 -49 54 10 10 25 17 33 18 34 1 -108 48 -149 49 -31 0
-40 29 -16 47 17 14 13 14 -41 9 -169 -18 -183 -18 -229 -1 -25 10 -46 22 -46
26 0 5 0 12 0 17 0 4 43 9 96 12 121 6 131 16 86 84 -18 26 -32 51 -32 57 0 5
-4 9 -10 9 -5 0 -10 7 -10 15 0 8 -4 15 -10 15 -5 0 -10 5 -10 10 0 12 -34 61
-67 99 -15 16 -21 33 -17 44 9 30 -35 105 -101 172 -60 60 -116 105 -133 105
-13 0 -152 142 -152 155 0 12 -41 55 -53 55 -4 0 -7 -16 -7 -36z m220 -216 c5
-13 18 -36 29 -53 31 -45 27 -60 -10 -38 -17 10 -45 30 -62 46 -29 27 -29 28
-12 47 24 26 43 25 55 -2z m163 -377 c8 -17 19 -25 32 -23 27 3 150 -121 142
-142 -7 -18 -92 -23 -102 -6 -3 6 -24 10 -45 10 -21 0 -42 5 -45 10 -3 6 -16
10 -28 10 -51 1 -68 37 -46 99 l11 32 24 -22 c23 -21 24 -21 23 -3 0 10 -4 28
-8 39 -5 11 -6 26 -3 33 6 17 27 -1 45 -37z"/>
<path d="M3938 4434 c-3 -5 -1 -58 4 -119 13 -148 13 -260 0 -320 -6 -27 -14
-63 -17 -80 -28 -141 -59 -194 -100 -178 -20 7 -51 -21 -71 -63 -14 -29 -16
-74 -4 -66 3 2 17 -1 31 -6 24 -10 27 -7 44 30 13 29 20 37 28 29 9 -9 8 -17
-1 -31 -22 -36 -15 -41 49 -38 87 4 102 25 106 150 5 116 10 141 27 135 26
-10 55 99 56 203 0 80 -20 155 -61 237 -35 70 -83 131 -91 117z"/>
<path d="M5143 4341 c-24 -11 -43 -25 -43 -31 0 -22 24 -56 86 -123 79 -86
119 -162 109 -209 -13 -59 -47 -119 -96 -169 -38 -39 -54 -49 -81 -49 -18 0
-40 5 -48 10 -21 13 -100 -75 -100 -112 0 -16 4 -28 9 -28 5 0 16 -2 24 -6 8
-3 28 6 44 20 30 26 53 25 31 -1 -17 -21 -2 -28 55 -27 61 0 120 26 134 57 6
12 16 36 24 52 27 59 61 104 99 129 21 14 55 42 74 61 32 31 36 42 36 85 0 27
5 52 10 55 6 3 10 17 10 30 0 13 -4 27 -10 30 -17 10 -12 85 5 85 26 0 17 17
-31 59 -71 63 -143 93 -227 98 -57 3 -81 0 -114 -16z"/>
<path d="M7370 3895 c-7 -9 -11 -17 -9 -19 10 -9 69 -36 79 -36 19 0 10 39
-12 54 -28 20 -42 20 -58 1z"/>
<path d="M7062 3378 c-28 -28 -7 -75 55 -116 50 -35 103 -25 103 19 0 23 -45
76 -81 94 -34 18 -61 19 -77 3z"/>
<path d="M6854 3136 c-18 -14 -18 -16 13 -48 24 -23 36 -29 44 -21 16 16 7 54
-17 69 -17 12 -23 12 -40 0z"/>
<path d="M3840 2709 c-24 -19 -25 -20 -6 -34 24 -19 39 -6 34 28 l-3 26 -25
-20z"/>
<path d="M5950 2477 c0 -35 2 -38 23 -31 33 10 33 12 4 42 l-27 27 0 -38z"/>
<path d="M4936 2353 l-15 -31 29 -4 c27 -4 30 -2 24 16 -14 47 -21 51 -38 19z"/>
<path d="M5260 2386 c0 -49 5 -54 34 -33 26 19 18 71 -11 75 -21 3 -23 -1 -23
-42z"/>
</g>
</svg>
